<svg version="1.1" id="Layer_1" xmlns="http://www.w3.org/2000/svg" xmlns:xlink="http://www.w3.org/1999/xlink" x="0px" y="0px"
	 width="100%" viewBox="0 0 1024 1024" enable-background="new 0 0 1024 1024" xml:space="preserve">
<path fill="#FFFFFF" opacity="1.000000" stroke="none" 
	d="
M952.000000,1025.000000 
	C634.666687,1025.000000 317.833344,1025.000000 1.000000,1025.000000 
	C1.000000,683.666687 1.000000,342.333344 1.000000,1.000000 
	C342.333344,1.000000 683.666687,1.000000 1025.000000,1.000000 
	C1025.000000,342.333344 1025.000000,683.666687 1025.000000,1025.000000 
	C1000.833313,1025.000000 976.666687,1025.000000 952.000000,1025.000000 
M683.997925,490.535675 
	C683.671021,499.457001 682.554443,508.442139 683.268982,517.279297 
	C683.833557,524.263000 685.674255,531.531860 688.696350,537.835938 
	C693.035339,546.887085 701.654419,550.559021 711.440491,551.781372 
	C721.193848,552.999573 737.084229,549.089661 742.364746,537.401917 
	C746.059814,529.223511 746.614929,521.153259 745.012634,512.570190 
	C742.568176,499.475494 728.295227,489.764893 715.376953,492.936493 
	C709.758484,494.315887 704.345581,496.531982 699.095764,498.282532 
	C698.896912,484.097656 703.821716,477.132202 711.896057,475.118408 
	C718.450562,473.483643 723.639709,477.013550 726.703247,484.801331 
	C731.995728,484.801331 737.288147,484.801331 742.932190,484.801331 
	C743.072510,477.460419 740.083984,471.257141 735.128723,466.943695 
	C725.178467,458.282104 709.026001,457.880249 698.019836,464.424744 
	C688.428833,470.127747 686.095093,479.810089 683.997925,490.535675 
M765.936035,538.411499 
	C769.329956,543.909973 773.825562,548.242371 780.263794,549.557251 
	C785.049438,550.534729 790.024475,550.646545 794.926270,550.981445 
	C806.602600,551.779114 817.521362,543.176514 821.164246,532.013123 
	C826.766235,514.845703 826.412659,497.688263 821.572083,480.703033 
	C820.115417,475.591522 816.129822,470.767395 812.239990,466.873016 
	C804.222412,458.845703 793.540527,460.313934 783.719177,461.394287 
	C774.827576,462.372406 767.767029,467.808075 764.408203,476.313660 
	C756.287109,496.878876 756.645752,517.497131 765.936035,538.411499 
M645.755554,535.711670 
	C634.680054,538.695496 629.857483,536.312805 625.863525,526.128906 
	C625.496948,525.194275 624.022644,524.143250 623.022461,524.101074 
	C618.086670,523.892883 613.137329,524.006348 607.711853,524.006348 
	C608.717163,533.303894 610.691956,541.115784 618.719727,546.416138 
	C628.827637,553.089844 639.903625,553.593384 650.792847,550.731750 
	C662.522949,547.649231 667.450989,541.125549 668.770508,529.583496 
	C669.340637,524.596191 668.521301,518.798157 666.346130,514.337158 
	C664.282471,510.104980 659.622864,507.138550 656.072083,503.582733 
	C655.824524,503.804382 656.134888,503.320282 656.560913,503.175018 
	C670.233826,498.512817 670.312317,472.677765 658.529480,465.584839 
	C648.732422,459.687286 638.821899,458.907990 628.400330,461.366913 
	C616.064026,464.277557 607.762695,475.936829 609.615356,486.847504 
	C615.212463,486.847504 620.835938,486.847504 626.431458,486.847504 
	C628.415161,478.272797 633.577393,474.730621 642.274109,476.034180 
	C646.768616,476.707886 649.113342,479.912506 649.851135,483.974274 
	C650.586975,488.025208 649.673767,492.327393 645.524902,493.932495 
	C640.341614,495.937836 634.740845,496.864227 629.241699,498.276611 
	C629.241699,502.369293 629.241699,506.975922 629.241699,512.000549 
	C631.599121,512.000549 633.776123,511.694153 635.832275,512.062500 
	C640.511414,512.900757 645.694885,512.553101 649.022766,517.071106 
	C653.386230,522.995117 652.550842,530.196838 645.755554,535.711670 
M196.490631,456.000000 
	C184.504013,456.000000 172.516388,456.082153 160.531586,455.934631 
	C157.961273,455.903015 156.419586,456.686279 156.046585,459.141449 
	C154.317413,470.523224 152.740402,481.928345 150.979614,493.305054 
	C149.469925,503.059631 147.729721,512.778381 146.195892,522.529419 
	C145.042603,529.861145 144.054764,537.218994 142.959503,544.798950 
	C160.667770,544.798950 178.099152,544.798950 195.816528,544.798950 
	C196.556671,541.046082 197.297058,537.292114 198.131149,533.062927 
	C184.317581,533.062927 170.738663,533.062927 157.095749,533.062927 
	C158.568924,523.865479 159.971237,515.110474 161.430481,506.000000 
	C172.340149,506.000000 183.297424,505.899017 194.250458,506.070190 
	C197.028809,506.113617 198.618210,505.322144 198.970886,502.578522 
	C199.320206,499.860809 199.535202,497.125885 199.849152,494.000000 
	C193.851135,494.000000 187.884689,494.000000 181.918243,494.000000 
	C175.768921,494.000000 169.619583,494.000000 163.353348,494.000000 
	C164.596405,486.609528 166.164902,479.499420 166.846634,472.305267 
	C167.192551,468.654907 168.462143,467.903625 171.714813,467.946289 
	C182.534180,468.088226 193.357635,468.073395 204.176483,467.912598 
	C205.625641,467.891083 207.993423,466.989166 208.322021,465.973022 
	C209.322357,462.879730 209.532669,459.530945 210.095459,456.000000 
	C205.450012,456.000000 201.468338,456.000000 196.490631,456.000000 
M392.501221,484.943665 
	C385.881073,486.522705 381.679321,491.173309 377.963989,496.423035 
	C372.094391,504.716736 371.195862,514.047852 371.959229,523.853821 
	C373.202454,539.823853 387.327026,548.794495 400.943176,545.360779 
	C406.292206,544.011963 411.132233,540.644836 415.883545,538.351501 
	C414.276367,548.590759 412.540253,559.651489 410.779877,570.866760 
	C415.266937,570.866760 418.894897,570.866760 422.848602,570.866760 
	C427.392151,541.972412 431.922729,513.160583 436.489227,484.120392 
	C432.090881,484.120392 428.795776,484.120392 425.400848,484.120392 
	C424.788300,486.773376 424.192535,489.353668 423.573212,492.036041 
	C407.981445,479.179474 402.923523,482.816101 392.501221,484.943665 
M511.000183,518.583191 
	C512.432739,535.266663 518.786377,543.949768 534.168701,545.888367 
	C549.675476,547.842712 563.231506,538.733154 566.512573,525.113159 
	C566.347412,525.090759 566.182922,525.060181 566.017029,525.047180 
	C559.878540,524.564819 554.766968,524.922119 550.174927,530.809021 
	C545.485046,536.821289 537.878357,537.262573 531.251831,534.031799 
	C525.641296,531.296387 522.492981,524.241272 523.542786,517.000000 
	C530.813538,517.000000 538.125549,517.000000 545.437561,517.000000 
	C552.902100,517.000000 560.366577,517.000000 567.585388,517.000000 
	C568.020691,515.274292 568.322876,514.028259 568.649597,512.788635 
	C570.742615,504.847961 566.975952,491.960815 561.426636,488.092926 
	C546.220581,477.494293 524.169128,482.933136 516.190735,499.755646 
	C513.559143,505.304352 512.682068,511.685120 511.000183,518.583191 
M360.049591,525.496277 
	C364.166626,517.535278 364.828644,509.045502 362.120972,500.754028 
	C356.657318,484.022919 342.027466,480.906677 327.893738,483.648193 
	C312.633728,486.608154 298.881409,502.774567 301.871124,523.793213 
	C303.802307,537.370117 314.584198,545.657166 327.073425,545.937073 
	C342.014526,546.271851 353.249664,539.934631 360.049591,525.496277 
M461.999786,501.454926 
	C462.914124,495.747314 463.828491,490.039734 464.764557,484.196564 
	C464.083313,484.129364 463.434570,484.022675 462.783722,484.007599 
	C453.167572,483.784332 452.671356,483.707947 451.240570,492.661377 
	C449.366272,504.390137 448.066620,516.234497 447.095703,528.076416 
	C446.302216,537.753845 455.186249,545.759583 464.908966,546.051208 
	C472.647339,546.283203 478.945679,543.213867 485.017761,537.797668 
	C485.017761,540.529785 485.017761,542.590942 485.017761,544.818359 
	C488.772766,544.818359 492.207855,544.818359 495.759216,544.818359 
	C498.922943,524.576477 502.061615,504.495087 505.231689,484.212738 
	C500.818390,484.212738 497.056213,484.212738 493.233704,484.212738 
	C491.797211,494.196014 490.554199,504.007446 488.925873,513.754578 
	C487.765747,520.698975 485.790680,527.432861 479.618347,531.848450 
	C475.472046,534.814575 470.814423,536.259827 465.922455,534.285645 
	C462.178040,532.774536 458.811920,529.964233 459.125000,525.578796 
	C459.679688,517.808289 460.998169,510.092377 461.999786,501.454926 
M254.987701,522.146912 
	C253.141113,516.135437 248.548981,513.269958 242.947739,511.407349 
	C238.701462,509.995270 234.265900,508.790039 230.459641,506.561737 
	C228.386719,505.348206 226.472519,502.261627 226.310577,499.895020 
	C226.182022,498.016418 228.395187,495.205139 230.313538,494.094055 
	C238.155930,489.551636 245.097961,493.013214 246.531891,501.753906 
	C250.312042,501.753906 254.081680,501.753906 259.485168,501.753906 
	C257.400635,497.122467 256.453064,492.626831 253.815216,489.608185 
	C246.161026,480.848969 231.678650,480.323730 220.851303,487.575378 
	C215.577652,491.107361 213.773849,496.382172 214.135086,502.141144 
	C214.547150,508.710846 217.945953,513.706421 224.528946,516.006287 
	C229.204361,517.639709 234.072220,518.920959 238.433182,521.174194 
	C240.704269,522.347595 243.159607,525.126343 243.498047,527.473206 
	C243.781799,529.440674 241.629227,532.631348 239.664200,533.899048 
	C231.532440,539.144897 224.069916,536.458496 219.687347,527.184204 
	C216.250229,527.184204 212.796310,527.184204 208.240784,527.184204 
	C209.266449,530.596313 209.614014,533.882751 211.143845,536.470093 
	C217.487335,547.198364 232.573822,547.870972 242.938477,543.975037 
	C252.557114,540.359558 256.308716,533.073120 254.987701,522.146912 
M873.438843,505.044464 
	C875.364014,503.117615 877.697205,501.454712 879.143738,499.218231 
	C885.431763,489.496307 883.185303,472.361023 870.978271,467.693024 
	C866.104187,465.829102 860.530090,465.286896 855.243530,465.118439 
	C845.039429,464.793274 835.491333,472.956512 834.022766,482.524170 
	C832.235840,494.165375 838.072021,504.799164 848.549133,507.919312 
	C856.844177,510.389618 865.141785,510.032593 873.438843,505.044464 
M280.005463,467.520599 
	C279.231781,472.947510 278.458099,478.374390 277.657471,483.990448 
	C273.820526,483.990448 270.190002,483.990448 266.180603,483.990448 
	C265.683411,487.609985 265.210938,491.049652 264.654297,495.101929 
	C268.831573,495.101929 272.372833,495.101929 275.789276,495.101929 
	C273.160034,511.920349 270.610046,528.232056 268.023773,544.775696 
	C271.882904,544.775696 275.666351,544.775696 279.823547,544.775696 
	C280.875000,538.502075 281.975922,532.168823 282.989288,525.821533 
	C284.037628,519.255554 284.967346,512.670654 286.015930,506.104706 
	C286.525452,502.914276 286.223907,498.876129 288.071533,496.834198 
	C289.686584,495.049286 293.862946,495.745941 296.775330,494.893707 
	C298.014557,494.531128 299.509277,493.182892 299.847137,491.988251 
	C300.534943,489.555969 300.515961,486.923798 300.842834,483.862549 
	C297.196320,483.862549 293.622986,483.862549 289.719360,483.862549 
	C290.596649,477.630524 291.396790,471.946472 292.231201,466.019073 
	C288.029846,466.019073 284.709991,465.997772 281.391113,466.044556 
	C280.948669,466.050812 280.511108,466.402222 280.005463,467.520599 
z"/>
<path fill="#FF9900" opacity="1.000000" stroke="none" 
	d="
M683.999268,490.093201 
	C686.095093,479.810089 688.428833,470.127747 698.019836,464.424744 
	C709.026001,457.880249 725.178467,458.282104 735.128723,466.943695 
	C740.083984,471.257141 743.072510,477.460419 742.932190,484.801331 
	C737.288147,484.801331 731.995728,484.801331 726.702271,484.807251 
	C723.639709,477.013550 718.450562,473.483643 711.896057,475.118408 
	C703.821716,477.132202 698.896912,484.097656 699.095764,498.282532 
	C704.345581,496.531982 709.758484,494.315887 715.376953,492.936493 
	C728.295227,489.764893 742.568176,499.475494 745.012634,512.570190 
	C746.614929,521.153259 746.059814,529.223511 742.364746,537.401917 
	C737.084229,549.089661 721.193848,552.999573 711.440491,551.781372 
	C701.654419,550.559021 693.035339,546.887085 688.696350,537.835938 
	C685.674255,531.531860 683.833557,524.263000 683.268982,517.279297 
	C682.554443,508.442139 683.671021,499.457001 683.999268,490.093201 
M700.047729,518.984619 
	C700.031982,519.980713 699.988220,520.977356 700.005127,521.972900 
	C700.096802,527.352051 704.486450,533.980164 709.697266,535.327759 
	C715.567261,536.845825 722.911621,535.536560 725.577698,531.882996 
	C729.292725,526.792053 729.908813,518.209106 726.754456,513.444519 
	C723.794250,508.973328 719.165222,506.678314 714.183777,507.230347 
	C707.685303,507.950470 701.915649,510.732086 700.047729,518.984619 
z"/>
<path fill="#FF9900" opacity="1.000000" stroke="none" 
	d="
M765.668091,538.148499 
	C756.645752,517.497131 756.287109,496.878876 764.408203,476.313660 
	C767.767029,467.808075 774.827576,462.372406 783.719177,461.394287 
	C793.540527,460.313934 804.222412,458.845703 812.239990,466.873016 
	C816.129822,470.767395 820.115417,475.591522 821.572083,480.703033 
	C826.412659,497.688263 826.766235,514.845703 821.164246,532.013123 
	C817.521362,543.176514 806.602600,551.779114 794.926270,550.981445 
	C790.024475,550.646545 785.049438,550.534729 780.263794,549.557251 
	C773.825562,548.242371 769.329956,543.909973 765.668091,538.148499 
M791.560303,534.000000 
	C799.963928,535.181885 804.452087,529.957214 805.872131,522.451355 
	C806.873901,517.156006 807.337158,511.646881 807.143066,506.265564 
	C806.900330,499.536407 806.255859,492.726776 804.818176,486.163635 
	C803.503296,480.160889 798.206299,477.961121 792.632446,477.079742 
	C787.968567,476.342255 782.348328,479.468292 780.359314,484.348572 
	C774.728943,498.163757 775.835144,512.403015 779.418396,526.350403 
	C780.608093,530.981018 784.624756,534.832703 791.560303,534.000000 
z"/>
<path fill="#FF9900" opacity="1.000000" stroke="none" 
	d="
M646.029907,535.428101 
	C652.550842,530.196838 653.386230,522.995117 649.022766,517.071106 
	C645.694885,512.553101 640.511414,512.900757 635.832275,512.062500 
	C633.776123,511.694153 631.599121,512.000549 629.241699,512.000549 
	C629.241699,506.975922 629.241699,502.369293 629.241699,498.276611 
	C634.740845,496.864227 640.341614,495.937836 645.524902,493.932495 
	C649.673767,492.327393 650.586975,488.025208 649.851135,483.974274 
	C649.113342,479.912506 646.768616,476.707886 642.274109,476.034180 
	C633.577393,474.730621 628.415161,478.272797 626.431458,486.847504 
	C620.835938,486.847504 615.212463,486.847504 609.615356,486.847504 
	C607.762695,475.936829 616.064026,464.277557 628.400330,461.366913 
	C638.821899,458.907990 648.732422,459.687286 658.529480,465.584839 
	C670.312317,472.677765 670.233826,498.512817 656.560913,503.175018 
	C656.134888,503.320282 655.824524,503.804382 656.072083,503.582733 
	C659.622864,507.138550 664.282471,510.104980 666.346130,514.337158 
	C668.521301,518.798157 669.340637,524.596191 668.770508,529.583496 
	C667.450989,541.125549 662.522949,547.649231 650.792847,550.731750 
	C639.903625,553.593384 628.827637,553.089844 618.719727,546.416138 
	C610.691956,541.115784 608.717163,533.303894 607.711853,524.006348 
	C613.137329,524.006348 618.086670,523.892883 623.022461,524.101074 
	C624.022644,524.143250 625.496948,525.194275 625.863525,526.128906 
	C629.857483,536.312805 634.680054,538.695496 646.029907,535.428101 
z"/>
<path fill="#000007" opacity="1.000000" stroke="none" 
	d="
M196.988647,456.000000 
	C201.468338,456.000000 205.450012,456.000000 210.095459,456.000000 
	C209.532669,459.530945 209.322357,462.879730 208.322021,465.973022 
	C207.993423,466.989166 205.625641,467.891083 204.176483,467.912598 
	C193.357635,468.073395 182.534180,468.088226 171.714813,467.946289 
	C168.462143,467.903625 167.192551,468.654907 166.846634,472.305267 
	C166.164902,479.499420 164.596405,486.609528 163.353348,494.000000 
	C169.619583,494.000000 175.768921,494.000000 181.918243,494.000000 
	C187.884689,494.000000 193.851135,494.000000 199.849152,494.000000 
	C199.535202,497.125885 199.320206,499.860809 198.970886,502.578522 
	C198.618210,505.322144 197.028809,506.113617 194.250458,506.070190 
	C183.297424,505.899017 172.340149,506.000000 161.430481,506.000000 
	C159.971237,515.110474 158.568924,523.865479 157.095749,533.062927 
	C170.738663,533.062927 184.317581,533.062927 198.131149,533.062927 
	C197.297058,537.292114 196.556671,541.046082 195.816528,544.798950 
	C178.099152,544.798950 160.667770,544.798950 142.959503,544.798950 
	C144.054764,537.218994 145.042603,529.861145 146.195892,522.529419 
	C147.729721,512.778381 149.469925,503.059631 150.979614,493.305054 
	C152.740402,481.928345 154.317413,470.523224 156.046585,459.141449 
	C156.419586,456.686279 157.961273,455.903015 160.531586,455.934631 
	C172.516388,456.082153 184.504013,456.000000 196.988647,456.000000 
z"/>
<path fill="#000007" opacity="1.000000" stroke="none" 
	d="
M392.804504,484.657227 
	C402.923523,482.816101 407.981445,479.179474 423.573212,492.036041 
	C424.192535,489.353668 424.788300,486.773376 425.400848,484.120392 
	C428.795776,484.120392 432.090881,484.120392 436.489227,484.120392 
	C431.922729,513.160583 427.392151,541.972412 422.848602,570.866760 
	C418.894897,570.866760 415.266937,570.866760 410.779877,570.866760 
	C412.540253,559.651489 414.276367,548.590759 415.883545,538.351501 
	C411.132233,540.644836 406.292206,544.011963 400.943176,545.360779 
	C387.327026,548.794495 373.202454,539.823853 371.959229,523.853821 
	C371.195862,514.047852 372.094391,504.716736 377.963989,496.423035 
	C381.679321,491.173309 385.881073,486.522705 392.804504,484.657227 
M414.627380,526.898926 
	C416.344238,522.786560 418.735413,518.813660 419.621765,514.529480 
	C420.991913,507.906799 420.041077,501.532013 414.277740,496.737457 
	C409.405273,492.683990 404.223022,493.142212 398.620422,494.791656 
	C385.348175,498.699127 380.339752,517.601746 386.035706,527.899963 
	C388.516235,532.384766 392.350220,535.084106 397.915497,535.060913 
	C404.600464,535.033020 409.822052,532.348022 414.627380,526.898926 
z"/>
<path fill="#000007" opacity="1.000000" stroke="none" 
	d="
M511.001465,518.134277 
	C512.682068,511.685120 513.559143,505.304352 516.190735,499.755646 
	C524.169128,482.933136 546.220581,477.494293 561.426636,488.092926 
	C566.975952,491.960815 570.742615,504.847961 568.649597,512.788635 
	C568.322876,514.028259 568.020691,515.274292 567.585388,517.000000 
	C560.366577,517.000000 552.902100,517.000000 545.437561,517.000000 
	C538.125549,517.000000 530.813538,517.000000 523.542786,517.000000 
	C522.492981,524.241272 525.641296,531.296387 531.251831,534.031799 
	C537.878357,537.262573 545.485046,536.821289 550.174927,530.809021 
	C554.766968,524.922119 559.878540,524.564819 566.017029,525.047180 
	C566.182922,525.060181 566.347412,525.090759 566.512573,525.113159 
	C563.231506,538.733154 549.675476,547.842712 534.168701,545.888367 
	C518.786377,543.949768 512.432739,535.266663 511.001465,518.134277 
M528.942261,500.589508 
	C527.449585,503.127228 525.956909,505.664978 523.995239,509.000000 
	C530.488342,509.000000 535.766235,509.000000 541.044128,509.000000 
	C546.305969,509.000000 551.567871,509.000000 556.793213,509.000000 
	C557.260193,500.094421 553.095764,493.752258 546.305847,493.056915 
	C539.538818,492.363922 533.928101,494.970734 528.942261,500.589508 
z"/>
<path fill="#000007" opacity="1.000000" stroke="none" 
	d="
M360.011719,525.889099 
	C353.249664,539.934631 342.014526,546.271851 327.073425,545.937073 
	C314.584198,545.657166 303.802307,537.370117 301.871124,523.793213 
	C298.881409,502.774567 312.633728,486.608154 327.893738,483.648193 
	C342.027466,480.906677 356.657318,484.022919 362.120972,500.754028 
	C364.828644,509.045502 364.166626,517.535278 360.011719,525.889099 
M314.000031,513.860657 
	C314.000031,515.691528 314.041382,517.523560 313.993469,519.353149 
	C313.608459,534.053040 328.356079,537.748291 336.901306,533.585876 
	C345.851654,529.226074 350.780945,522.359924 351.174896,511.986786 
	C351.421173,505.500671 349.971710,500.055725 344.761871,496.441528 
	C339.502838,492.793213 333.489044,492.364471 327.487732,495.176819 
	C319.872284,498.745636 315.854950,505.032715 314.000031,513.860657 
z"/>
<path fill="#000007" opacity="1.000000" stroke="none" 
	d="
M461.998413,501.904297 
	C460.998169,510.092377 459.679688,517.808289 459.125000,525.578796 
	C458.811920,529.964233 462.178040,532.774536 465.922455,534.285645 
	C470.814423,536.259827 475.472046,534.814575 479.618347,531.848450 
	C485.790680,527.432861 487.765747,520.698975 488.925873,513.754578 
	C490.554199,504.007446 491.797211,494.196014 493.233704,484.212738 
	C497.056213,484.212738 500.818390,484.212738 505.231689,484.212738 
	C502.061615,504.495087 498.922943,524.576477 495.759216,544.818359 
	C492.207855,544.818359 488.772766,544.818359 485.017761,544.818359 
	C485.017761,542.590942 485.017761,540.529785 485.017761,537.797668 
	C478.945679,543.213867 472.647339,546.283203 464.908966,546.051208 
	C455.186249,545.759583 446.302216,537.753845 447.095703,528.076416 
	C448.066620,516.234497 449.366272,504.390137 451.240570,492.661377 
	C452.671356,483.707947 453.167572,483.784332 462.783722,484.007599 
	C463.434570,484.022675 464.083313,484.129364 464.764557,484.196564 
	C463.828491,490.039734 462.914124,495.747314 461.998413,501.904297 
z"/>
<path fill="#000007" opacity="1.000000" stroke="none" 
	d="
M254.993454,522.583252 
	C256.308716,533.073120 252.557114,540.359558 242.938477,543.975037 
	C232.573822,547.870972 217.487335,547.198364 211.143845,536.470093 
	C209.614014,533.882751 209.266449,530.596313 208.240784,527.184204 
	C212.796310,527.184204 216.250229,527.184204 219.687347,527.184204 
	C224.069916,536.458496 231.532440,539.144897 239.664200,533.899048 
	C241.629227,532.631348 243.781799,529.440674 243.498047,527.473206 
	C243.159607,525.126343 240.704269,522.347595 238.433182,521.174194 
	C234.072220,518.920959 229.204361,517.639709 224.528946,516.006287 
	C217.945953,513.706421 214.547150,508.710846 214.135086,502.141144 
	C213.773849,496.382172 215.577652,491.107361 220.851303,487.575378 
	C231.678650,480.323730 246.161026,480.848969 253.815216,489.608185 
	C256.453064,492.626831 257.400635,497.122467 259.485168,501.753906 
	C254.081680,501.753906 250.312042,501.753906 246.531891,501.753906 
	C245.097961,493.013214 238.155930,489.551636 230.313538,494.094055 
	C228.395187,495.205139 226.182022,498.016418 226.310577,499.895020 
	C226.472519,502.261627 228.386719,505.348206 230.459641,506.561737 
	C234.265900,508.790039 238.701462,509.995270 242.947739,511.407349 
	C248.548981,513.269958 253.141113,516.135437 254.993454,522.583252 
z"/>
<path fill="#FF9900" opacity="1.000000" stroke="none" 
	d="
M873.172668,505.310944 
	C865.141785,510.032593 856.844177,510.389618 848.549133,507.919312 
	C838.072021,504.799164 832.235840,494.165375 834.022766,482.524170 
	C835.491333,472.956512 845.039429,464.793274 855.243530,465.118439 
	C860.530090,465.286896 866.104187,465.829102 870.978271,467.693024 
	C883.185303,472.361023 885.431763,489.496307 879.143738,499.218231 
	C877.697205,501.454712 875.364014,503.117615 873.172668,505.310944 
M865.546326,479.067474 
	C860.903992,475.135162 856.231873,474.808014 852.370117,478.144745 
	C848.139404,481.800293 846.684448,488.986145 849.753113,493.097137 
	C852.118896,496.266449 854.910583,498.908234 859.677795,498.090393 
	C863.590393,497.419189 865.583130,495.190430 867.082764,491.862030 
	C869.026184,487.548645 868.040405,483.627441 865.546326,479.067474 
z"/>
<path fill="#000007" opacity="1.000000" stroke="none" 
	d="
M280.038361,467.057190 
	C280.511108,466.402222 280.948669,466.050812 281.391113,466.044556 
	C284.709991,465.997772 288.029846,466.019073 292.231201,466.019073 
	C291.396790,471.946472 290.596649,477.630524 289.719360,483.862549 
	C293.622986,483.862549 297.196320,483.862549 300.842834,483.862549 
	C300.515961,486.923798 300.534943,489.555969 299.847137,491.988251 
	C299.509277,493.182892 298.014557,494.531128 296.775330,494.893707 
	C293.862946,495.745941 289.686584,495.049286 288.071533,496.834198 
	C286.223907,498.876129 286.525452,502.914276 286.015930,506.104706 
	C284.967346,512.670654 284.037628,519.255554 282.989288,525.821533 
	C281.975922,532.168823 280.875000,538.502075 279.823547,544.775696 
	C275.666351,544.775696 271.882904,544.775696 268.023773,544.775696 
	C270.610046,528.232056 273.160034,511.920349 275.789276,495.101929 
	C272.372833,495.101929 268.831573,495.101929 264.654297,495.101929 
	C265.210938,491.049652 265.683411,487.609985 266.180603,483.990448 
	C270.190002,483.990448 273.820526,483.990448 277.657471,483.990448 
	C278.458099,478.374390 279.231781,472.947510 280.038361,467.057190 
z"/>
<path fill="#FFFFFF" opacity="1.000000" stroke="none" 
	d="
M700.185181,518.591309 
	C701.915649,510.732086 707.685303,507.950470 714.183777,507.230347 
	C719.165222,506.678314 723.794250,508.973328 726.754456,513.444519 
	C729.908813,518.209106 729.292725,526.792053 725.577698,531.882996 
	C722.911621,535.536560 715.567261,536.845825 709.697266,535.327759 
	C704.486450,533.980164 700.096802,527.352051 700.005127,521.972900 
	C699.988220,520.977356 700.031982,519.980713 700.185181,518.591309 
z"/>
<path fill="#FFFFFF" opacity="1.000000" stroke="none" 
	d="
M791.118164,534.000000 
	C784.624756,534.832703 780.608093,530.981018 779.418396,526.350403 
	C775.835144,512.403015 774.728943,498.163757 780.359314,484.348572 
	C782.348328,479.468292 787.968567,476.342255 792.632446,477.079742 
	C798.206299,477.961121 803.503296,480.160889 804.818176,486.163635 
	C806.255859,492.726776 806.900330,499.536407 807.143066,506.265564 
	C807.337158,511.646881 806.873901,517.156006 805.872131,522.451355 
	C804.452087,529.957214 799.963928,535.181885 791.118164,534.000000 
z"/>
<path fill="#FFFFFF" opacity="1.000000" stroke="none" 
	d="
M414.347656,527.147095 
	C409.822052,532.348022 404.600464,535.033020 397.915497,535.060913 
	C392.350220,535.084106 388.516235,532.384766 386.035706,527.899963 
	C380.339752,517.601746 385.348175,498.699127 398.620422,494.791656 
	C404.223022,493.142212 409.405273,492.683990 414.277740,496.737457 
	C420.041077,501.532013 420.991913,507.906799 419.621765,514.529480 
	C418.735413,518.813660 416.344238,522.786560 414.347656,527.147095 
z"/>
<path fill="#FFFFFF" opacity="1.000000" stroke="none" 
	d="
M529.190979,500.314148 
	C533.928101,494.970734 539.538818,492.363922 546.305847,493.056915 
	C553.095764,493.752258 557.260193,500.094421 556.793213,509.000000 
	C551.567871,509.000000 546.305969,509.000000 541.044128,509.000000 
	C535.766235,509.000000 530.488342,509.000000 523.995239,509.000000 
	C525.956909,505.664978 527.449585,503.127228 529.190979,500.314148 
z"/>
<path fill="#FFFFFF" opacity="1.000000" stroke="none" 
	d="
M314.000549,513.412781 
	C315.854950,505.032715 319.872284,498.745636 327.487732,495.176819 
	C333.489044,492.364471 339.502838,492.793213 344.761871,496.441528 
	C349.971710,500.055725 351.421173,505.500671 351.174896,511.986786 
	C350.780945,522.359924 345.851654,529.226074 336.901306,533.585876 
	C328.356079,537.748291 313.608459,534.053040 313.993469,519.353149 
	C314.041382,517.523560 314.000031,515.691528 314.000549,513.412781 
z"/>
<path fill="#FFFFFF" opacity="1.000000" stroke="none" 
	d="
M865.747437,479.410278 
	C868.040405,483.627441 869.026184,487.548645 867.082764,491.862030 
	C865.583130,495.190430 863.590393,497.419189 859.677795,498.090393 
	C854.910583,498.908234 852.118896,496.266449 849.753113,493.097137 
	C846.684448,488.986145 848.139404,481.800293 852.370117,478.144745 
	C856.231873,474.808014 860.903992,475.135162 865.747437,479.410278 
z"/>
</svg>