<?xml version="1.0" encoding="UTF-8"?>
<!-- Generator: visioncortex VTracer 0.6.4 -->
<svg version="1.1" xmlns="http://www.w3.org/2000/svg" width="1024" height="1024">
<path d="M0 0 C11.66068427 9.23357351 17.32917353 24.29369777 19.7265625 38.4921875 C21.092417 52.83365979 15.71717145 67.52562054 6.7265625 78.4921875 C6.1490625 79.3378125 5.5715625 80.1834375 4.9765625 81.0546875 C-1.27657019 87.82891458 -9.344085 91.68871278 -17.68359375 95.328125 C-20.15379251 96.25418759 -20.15379251 96.25418759 -21.2734375 97.4921875 C-21.66126876 101.94005798 -21.75870518 106.39292241 -21.84326172 110.85498047 C-21.87979705 112.35292912 -21.93424687 113.8505569 -22.00732422 115.34716797 C-22.64742501 124.07050795 -22.64742501 124.07050795 -19.51782227 131.89697266 C-17.19610546 133.74122651 -14.90053919 135.12364841 -12.2734375 136.4921875 C-10.89873542 137.36412864 -9.52746168 138.24150522 -8.16015625 139.125 C-6.76319615 139.96039472 -5.36334942 140.79097769 -3.9609375 141.6171875 C5.24106842 147.14225339 14.23082416 152.96169312 23.20751953 158.84375 C27.31101357 161.52903704 31.42571981 164.19702276 35.5390625 166.8671875 C61.87457909 183.98165719 88.16124397 201.17123834 114.4152832 218.41040039 C115.77945826 219.30615444 117.14363469 220.20190639 118.5078125 221.09765625 C119.18623703 221.54313309 119.86466156 221.98860992 120.56364441 222.44758606 C125.31367357 225.56606861 130.06641081 228.68039356 134.8203125 231.79296875 C140.79100072 235.70247384 146.75731318 239.61856558 152.71896362 243.5418396 C156.13707747 245.79101617 159.55728783 248.03688822 162.98144531 250.27685547 C166.48533416 252.56936147 169.98369985 254.87007903 173.47845459 257.17648315 C174.79576674 258.04390043 176.1149441 258.90849263 177.43609619 259.77005005 C179.26203334 260.96146891 181.08088745 262.16302583 182.8984375 263.3671875 C184.4467627 264.38425781 184.4467627 264.38425781 186.02636719 265.421875 C193.89042075 271.45145675 197.6517498 281.61541902 199.4453125 291.15234375 C200.77820103 302.24123579 199.52692078 312.30901923 193.16015625 321.6796875 C185.76271976 331.03230475 176.08073037 333.55106799 164.65747058 335.09155226 C157.90052033 335.78021563 151.1585759 335.76766181 144.37599182 335.74615479 C142.77005066 335.74846446 141.16411057 335.75164436 139.55817264 335.75560927 C135.18352126 335.76389645 130.80895804 335.75985989 126.4343065 335.75363684 C121.70142759 335.74908823 116.96856322 335.75610802 112.23568726 335.76159668 C102.97882196 335.77046693 93.72198919 335.76857919 84.46512265 335.7627714 C76.93793182 335.7582453 69.41075007 335.7576461 61.88355827 335.75981903 C60.81017045 335.7601255 59.73678263 335.76043196 58.63086791 335.76074772 C56.44994235 335.7613872 54.2690168 335.76203563 52.08809125 335.7626929 C31.66080986 335.76838933 11.23354646 335.76184923 -9.19373197 335.75109217 C-26.69988305 335.74215856 -44.2060076 335.74370847 -61.7121582 335.75292969 C-82.06733498 335.76364667 -102.42249601 335.76783873 -122.77767521 335.76170516 C-124.95065597 335.7610681 -127.12363674 335.76043936 -129.29661751 335.75981903 C-130.36561589 335.75951048 -131.43461428 335.75920193 -132.53600655 335.75888403 C-140.048737 335.75716128 -147.56145743 335.76006315 -155.07418633 335.76477814 C-164.23752039 335.77040291 -173.40082021 335.7688371 -182.56415039 335.75821665 C-187.23436463 335.75298119 -191.9045219 335.75086672 -196.57473564 335.75751495 C-200.85873068 335.76352088 -205.1426165 335.76012359 -209.42660177 335.74955985 C-210.9674887 335.74734533 -212.50838505 335.74841766 -214.04926579 335.75331143 C-248.57820605 335.85446973 -248.57820605 335.85446973 -260.87890625 324.15234375 C-266.61717973 317.32106579 -268.57556261 308.98262583 -268.1484375 300.2421875 C-267.00149975 288.9292106 -262.847123 274.36452138 -254.11328125 266.5625 C-249.33434852 263.4921875 -249.33434852 263.4921875 -246.2734375 263.4921875 C-243.43243304 273.76087832 -243.43243304 273.76087832 -245.40625 277.82421875 C-246.48630239 279.1468916 -247.59634842 280.44561524 -248.734375 281.71875 C-253.13577014 286.79040836 -252.70280656 293.96997201 -252.5859375 300.33203125 C-251.9806965 306.45253087 -249.71079065 309.98950011 -245.5234375 314.3671875 C-237.26628396 319.76609558 -227.63941749 318.77740829 -218.14845276 318.75288391 C-216.49391585 318.75590627 -214.83938034 318.75979618 -213.1848473 318.76447648 C-208.64824236 318.77475418 -204.11171648 318.77257524 -199.57510507 318.76829588 C-194.67863194 318.76582828 -189.78217783 318.77484322 -184.88571167 318.78233337 C-175.29716284 318.79508108 -165.70864202 318.796874 -156.12008614 318.79453311 C-148.32668143 318.79275 -140.53328521 318.79449945 -132.73988152 318.79875755 C-131.07602537 318.79965034 -131.07602537 318.79965034 -129.37855596 318.80056116 C-127.12514282 318.80177291 -124.87172967 318.80298704 -122.61831652 318.80420353 C-101.48735134 318.81507919 -80.35640211 318.81291636 -59.22543602 318.80681869 C-39.89385723 318.8016486 -20.56232881 318.81290735 -1.23075999 318.83191691 C18.62046935 318.8512878 38.47167485 318.85955268 58.32291371 318.85579365 C69.46727568 318.85388059 80.61159476 318.85637951 91.75594902 318.87050819 C101.24240279 318.88241335 110.72878726 318.88383652 120.21524196 318.87171803 C125.05481938 318.8658235 129.89427001 318.86474583 134.73383904 318.87672043 C139.16583497 318.88755912 143.59759792 318.88449985 148.02958287 318.87045874 C149.63110823 318.86780629 151.23265173 318.87019557 152.83415931 318.87819461 C166.76423004 319.00301826 166.76423004 319.00301826 179.1015625 313.1796875 C184.19426092 307.96573435 185.85333959 302.42081082 185.9765625 295.3046875 C185.89744109 288.72002833 185.01017002 283.10142827 180.58984375 278.05078125 C177.28737781 275.09973733 173.84448649 272.77801032 170.1015625 270.4296875 C168.99047119 269.72187134 168.99047119 269.72187134 167.85693359 268.99975586 C165.48422413 267.49068484 163.10575113 265.99101835 160.7265625 264.4921875 C159.16903515 263.50558031 157.61174228 262.51860284 156.0546875 261.53125 C152.08513886 259.01709224 148.11025721 256.51149633 144.13378906 254.00830078 C140.16219303 251.50692032 136.19456534 248.99926241 132.2265625 246.4921875 C130.64324851 245.49215688 129.05991517 244.49215689 127.4765625 243.4921875 C22.9765625 177.4921875 22.9765625 177.4921875 20.59936523 175.99047852 C19.02374308 174.99556205 17.4477368 174.00125363 15.87133789 173.00756836 C11.79158249 170.43476865 7.72002917 167.85017331 3.66015625 165.24609375 C2.82355469 164.71177734 1.98695313 164.17746094 1.125 163.62695312 C-0.45437146 162.61791025 -2.03141128 161.60520316 -3.60546875 160.58789062 C-17.35316841 151.82495086 -28.55244948 147.53197434 -44.953125 151.0703125 C-53.47177448 153.71135277 -60.6320694 159.04344323 -67.96582031 163.96142578 C-71.8182737 166.51695718 -75.7335976 168.97123248 -79.6484375 171.4296875 C-81.25006461 172.43869953 -82.8516268 173.44781462 -84.453125 174.45703125 C-85.24944336 174.95831543 -86.04576172 175.45959961 -86.86621094 175.97607422 C-90.83780691 178.47745465 -94.80545399 180.98508209 -98.7734375 183.4921875 C-103.48746153 186.47005093 -108.20183991 189.44734588 -112.91796875 192.421875 C-121.38108165 197.76102005 -129.83342498 203.11658949 -138.2734375 208.4921875 C-145.92888433 213.3680813 -153.59038538 218.23404629 -161.27001953 223.07177734 C-165.35670406 225.64641458 -169.43554272 228.23242535 -173.50390625 230.8359375 C-174.3647583 231.38491699 -175.22561035 231.93389648 -176.11254883 232.49951172 C-177.75907322 233.54985066 -179.40356776 234.60338095 -181.0456543 235.66064453 C-184.69641683 237.98468488 -188.14596153 240.09443667 -192.2734375 241.4921875 C-193.90181872 236.60704385 -194.74397724 232.53284305 -193.2734375 227.4921875 C-189.36896984 223.42549756 -184.71127012 220.74412168 -179.8984375 217.8671875 C-178.52352361 217.00558517 -177.151068 216.14004851 -175.78100586 215.27075195 C-172.98127326 213.50070022 -170.17034699 211.75107923 -167.34814453 210.01708984 C-161.42561422 206.36682046 -155.6403375 202.51410394 -149.8359375 198.6796875 C-147.7107497 197.29126167 -145.58445976 195.90452127 -143.45703125 194.51953125 C-139.38540174 191.8678961 -135.31483423 189.2146601 -131.24609375 186.55859375 C-118.93198239 178.52090977 -106.60799396 170.4984599 -94.2734375 162.4921875 C-93.57653809 162.03956543 -92.87963867 161.58694336 -92.16162109 161.12060547 C-81.83472595 154.4154415 -71.47081964 147.76917054 -61.08911133 141.14916992 C-60.07743896 140.50310791 -59.0657666 139.8570459 -58.0234375 139.19140625 C-57.13140625 138.62252686 -56.239375 138.05364746 -55.3203125 137.4675293 C-54.31484375 136.8156665 -53.309375 136.16380371 -52.2734375 135.4921875 C-51.50571014 135.09690353 -50.73798279 134.70161957 -49.94699097 134.2943573 C-45.17835131 131.70439289 -45.17835131 131.70439289 -42.47320557 127.2190094 C-42.18455433 124.44719824 -42.18259942 121.80453202 -42.28125 119.01953125 C-42.2789035 118.01886124 -42.27655701 117.01819122 -42.2741394 115.98719788 C-42.27342451 112.79950572 -42.33294047 109.61664773 -42.3984375 106.4296875 C-42.43212066 103.24013305 -42.45302095 100.05119268 -42.45846558 96.86146545 C-42.46519156 94.88022359 -42.48994674 92.8989399 -42.53494263 90.91819763 C-42.58594131 85.95220748 -42.58909498 82.49565679 -39.2734375 78.4921875 C-36.11556498 76.28441082 -32.9225157 76.09347198 -29.1484375 75.6796875 C-18.54529649 74.12598339 -10.4775302 69.4351615 -3.2734375 61.4921875 C2.47861119 53.26909164 3.9702036 44.85134814 2.30078125 34.97265625 C-0.43160106 24.32809942 -7.47210003 15.86506229 -16.2734375 9.4921875 C-24.57168868 4.82948936 -32.74039354 3.12699554 -42.0859375 5.6171875 C-53.46359001 9.33480952 -61.56067411 16.0761175 -67.39892578 26.50952148 C-69.2646921 30.73952938 -69.51463473 35.35850908 -70.05078125 39.90820312 C-70.76827773 45.13884104 -72.01190429 48.31501894 -75.2734375 52.4921875 C-81.64877997 52.00177654 -81.64877997 52.00177654 -84.6484375 49.5546875 C-88.29868919 44.92167574 -87.76710275 40.18672044 -87.2734375 34.4921875 C-84.32263703 20.54754759 -77.50745878 7.30564009 -65.859375 -1.2890625 C-43.31232212 -15.31833985 -21.82153271 -14.47270039 0 0 Z " fill="#000000" transform="translate(541.2734375,228.5078125)"/>
<path d="M0 0 C-0.44472656 1.30324219 -0.44472656 1.30324219 -0.8984375 2.6328125 C-2.01429071 5.90503229 -2.01429071 5.90503229 -2.7265625 8.9296875 C-4.25955087 13.95522327 -5.8548328 17.59632425 -10.46484375 20.30859375 C-13.90389241 22.07859336 -17.4446567 23.60892648 -21.00341797 25.12060547 C-34.54227391 31.0837944 -46.88821524 40.68390803 -57.60546875 50.7578125 C-59.60371686 52.628929 -61.63509164 54.38993106 -63.75 56.125 C-67.59365764 59.40661336 -70.79488992 63.10138657 -74 67 C-74.83660156 68.010625 -75.67320312 69.02125 -76.53515625 70.0625 C-83.47504011 78.58666268 -89.45373031 87.51637425 -95 97 C-95.35690918 97.60392578 -95.71381836 98.20785156 -96.08154297 98.83007812 C-121.6546668 142.60108012 -126.7082863 196.84426931 -114.37548828 245.46191406 C-109.90714144 262.45967923 -102.96407603 278.37042304 -95 294 C-99.40841062 296.20420531 -105.12481881 295.6384506 -110.01806641 295.87841797 C-111.8327098 295.98973756 -113.64203561 296.18038217 -115.44921875 296.37890625 C-116.47660156 296.46011719 -117.50398438 296.54132813 -118.5625 296.625 C-119.92568359 296.76808594 -119.92568359 296.76808594 -121.31640625 296.9140625 C-126.65405459 295.09599887 -128.83104257 289.25923715 -131.29858398 284.49023438 C-132.57693993 281.83040059 -133.77195399 279.14863578 -134.9375 276.4375 C-135.36426025 275.44806396 -135.79102051 274.45862793 -136.23071289 273.43920898 C-145.09951429 252.27695357 -151.00517717 229.27808234 -151.23828125 206.25 C-151.24812042 205.44252319 -151.25795959 204.63504639 -151.26809692 203.80310059 C-151.44449192 185.55856834 -151.26737316 167.84760661 -147 150 C-146.76394043 149.01225586 -146.52788086 148.02451172 -146.28466797 147.00683594 C-134.94537665 101.40109818 -107.10524477 57.81502498 -68 31 C-67.37480469 30.56816406 -66.74960937 30.13632812 -66.10546875 29.69140625 C-48.14100331 17.37789887 -22.41614961 0 0 0 Z " fill="#0075DE" transform="translate(451,238)"/>
<path d="M0 0 C-11.78199993 17.6729999 -30.97030148 30.39481834 -49 41 C-49.60537598 41.35835937 -50.21075195 41.71671875 -50.83447266 42.0859375 C-64.4976709 50.06707554 -79.37257359 55.68713393 -94.625 59.8125 C-95.29047852 59.99514404 -95.95595703 60.17778809 -96.64160156 60.3659668 C-99.08359828 60.98504442 -101.52971582 61.50387598 -104 62 C-104.93147858 62.18792114 -104.93147858 62.18792114 -105.8817749 62.37963867 C-118.53723912 64.8537113 -130.91073878 65.47071345 -143.78759766 65.39111328 C-146.86536197 65.3750503 -149.94180665 65.39105212 -153.01953125 65.41015625 C-170.00981633 65.42889304 -186.7983619 63.88262772 -203.25 59.4375 C-204.18344238 59.18846924 -205.11688477 58.93943848 -206.07861328 58.68286133 C-238.72459628 49.55378649 -275.81482093 31.54073279 -297 4 C-287.93334901 0.977783 -273.27721452 -0.40787703 -264.515625 3.58984375 C-262.08583008 5.90956406 -260.08637702 8.36985374 -258 11 C-255.98367094 12.72517223 -253.99106071 14.34888189 -251.875 15.9375 C-251.33166016 16.35153076 -250.78832031 16.76556152 -250.22851562 17.19213867 C-228.94191282 33.16634046 -204.89342361 44.08796442 -179 50 C-178.29601074 50.16661133 -177.59202148 50.33322266 -176.86669922 50.50488281 C-135.58739101 59.96533637 -89.18649237 48.67756882 -53.37890625 27.17578125 C-40.63244685 19.11612069 -40.63244685 19.11612069 -29.21875 9.33984375 C-19.75087068 -0.02993586 -13.23933931 -1.77434444 0 0 Z " fill="#0075DE" transform="translate(655,570)"/>
<path d="M0 0 C29.76119813 4.51927832 58.0126174 22.87939576 79.73828125 42.92578125 C81.78324667 44.80121586 83.87619475 46.59032533 86 48.375 C116.79697479 75.41474387 136.2463085 116.64743554 145 156 C145.17934082 156.76554199 145.35868164 157.53108398 145.54345703 158.31982422 C148.37297509 170.84332172 148.28139595 183.53963501 148.3125 196.3125 C148.31814972 197.60146683 148.31814972 197.60146683 148.32391357 198.91647339 C148.34803252 209.78517009 147.76834216 220.2654444 146 231 C136.29130133 227.90205797 136.29130133 227.90205797 134 224 C133.43257664 219.38046856 133.8728507 214.87563372 134.25 210.25 C134.41610934 207.52963466 134.55264868 204.80820063 134.68359375 202.0859375 C134.71813156 201.40197906 134.75266937 200.71802063 134.78825378 200.01333618 C135.57429773 182.85552045 133.08097476 165.6347964 129 149 C128.73944824 147.92709717 128.73944824 147.92709717 128.47363281 146.83251953 C122.05001434 121.17960324 109.53656969 97.50448148 93 77 C92.28577881 76.11223877 92.28577881 76.11223877 91.55712891 75.20654297 C81.57691071 62.90117197 70.66392182 52.47588212 58 43 C57.16855469 42.37351562 56.33710937 41.74703125 55.48046875 41.1015625 C43.43964256 32.36324571 30.50253855 25.47350771 16.828125 19.69140625 C9.88401427 16.64721694 7.0245832 14.09431425 3.6875 7.3125 C3.32849609 6.61060547 2.96949219 5.90871094 2.59960938 5.18554688 C1.720864 3.46320595 0.85874243 1.73240098 0 0 Z " fill="#0075DE" transform="translate(560,237)"/>
<path d="M0 0 C5.46880405 5.60795937 6.56601717 10.82110612 7.53515625 18.57421875 C1.92515625 18.57421875 -3.68484375 18.57421875 -9.46484375 18.57421875 C-10.45484375 16.59421875 -11.44484375 14.61421875 -12.46484375 12.57421875 C-15.37083777 10.15255707 -17.12846043 9.61091511 -20.90234375 9.19921875 C-24.95599606 9.62591899 -27.13535644 10.20658333 -30.46484375 12.57421875 C-34.78735222 18.9340879 -35.61340565 24.99756183 -35.46484375 32.57421875 C-34.49546875 31.79046875 -33.52609375 31.00671875 -32.52734375 30.19921875 C-25.98108521 25.58141713 -19.06582964 25.02899114 -11.2421875 25.97265625 C-3.62661678 27.62216102 2.24921532 31.08036886 6.53515625 37.57421875 C11.16942774 47.00827142 12.26074869 57.23511461 8.97265625 67.32421875 C6.02759838 74.46032051 1.98829707 79.71408243 -5.08984375 83.01171875 C-15.30322922 86.90825405 -26.27664975 86.67417838 -36.46484375 82.57421875 C-42.67260512 78.54981309 -47.12853592 73.6067413 -49.46484375 66.57421875 C-49.76132812 65.6821875 -50.0578125 64.79015625 -50.36328125 63.87109375 C-55.11145253 46.18524478 -55.35512992 22.28264056 -46.15234375 5.94921875 C-41.6531365 -0.30814026 -36.28467093 -4.30489121 -28.77734375 -6.05078125 C-18.55652613 -7.20785494 -8.39829535 -6.611424 0 0 Z M-30.46484375 43.57421875 C-33.96491297 47.16403333 -35.33546503 49.85995075 -35.71484375 54.88671875 C-35.37006924 59.97214278 -33.7738747 63.06065171 -30.46484375 66.88671875 C-26.68454088 70.07634929 -22.70183769 69.91659475 -17.97265625 69.84765625 C-14.176196 69.43371199 -12.21164444 68.18702916 -9.46484375 65.57421875 C-6.38930155 60.61366682 -6.0128594 56.70476945 -6.828125 50.9453125 C-7.88464957 47.01089278 -9.40730913 45.2920273 -12.46484375 42.57421875 C-18.97036351 39.65337314 -24.30464954 40.37395359 -30.46484375 43.57421875 Z " fill="#FF9900" transform="translate(735.46484375,699.42578125)"/>
<path d="M0 0 C1.25514404 0.01027222 1.25514404 0.01027222 2.53564453 0.02075195 C10.23287204 0.22149035 15.33275634 1.79498246 21.3125 6.6875 C22.42625 8.04875 22.42625 8.04875 23.5625 9.4375 C23.98144531 9.94410156 24.40039062 10.45070313 24.83203125 10.97265625 C34.51118201 24.27783328 34.28256414 44.34972311 32.23291016 59.9453125 C30.37588988 70.62148266 26.87125824 78.92929692 18.69921875 86.11328125 C12.63861879 89.86930207 6.73980672 90.97246599 -0.3125 90.875 C-1.10188965 90.86525146 -1.8912793 90.85550293 -2.70458984 90.84545898 C-11.36343345 90.58271892 -17.49081573 88.77540564 -23.75 82.5625 C-34.79305373 69.0604667 -34.49559414 49.96177869 -33.4375 33.4375 C-31.98282192 21.94374726 -28.3454708 12.47246678 -19.57421875 4.76171875 C-13.22232729 0.82517176 -7.31472377 -0.09170917 0 0 Z M-9.4375 19.4375 C-15.98138678 27.26649115 -15.6439324 35.40657344 -15.6875 45.1875 C-15.708125 46.32960938 -15.72875 47.47171875 -15.75 48.6484375 C-15.79165944 57.70936495 -14.99472821 65.6687483 -8.4375 72.4375 C-4.22246247 74.54501876 0.98368534 73.94625718 5.5625 73.4375 C8.99763787 72.07540471 10.76820168 69.89686557 12.546875 66.62890625 C17.42071123 54.46730547 17.24238253 36.55219277 12.5625 24.3125 C10.51169689 20.46724416 7.88075185 18.19140304 3.640625 16.8125 C-1.40769125 15.87327837 -5.01843722 16.68600808 -9.4375 19.4375 Z " fill="#FF9900" transform="translate(792.4375,693.5625)"/>
<path d="M0 0 C5.05006432 4.20157173 7.26488545 8.10147856 8 14.65625 C8.23834314 21.62778673 8.04567183 27.66939159 3.625 33.3125 C1.34309758 35.43140939 -0.60846539 36.92923269 -3.375 38.3125 C-2.84390625 38.66441406 -2.3128125 39.01632812 -1.765625 39.37890625 C4.32903976 43.63849859 8.12293674 47.80218368 9.625 55.3125 C10.37075203 62.96562734 9.65295104 69.65219786 5.625 76.3125 C1.05854382 81.78606259 -4.32411308 85.19920206 -11.375 86.3125 C-23.26047495 87.18516672 -34.10982937 86.75384935 -43.6875 78.9140625 C-48.12620863 74.70139922 -50.10662368 70.23158948 -51.375 64.3125 C-51.375 62.3325 -51.375 60.3525 -51.375 58.3125 C-45.765 58.3125 -40.155 58.3125 -34.375 58.3125 C-33.7975 59.570625 -33.22 60.82875 -32.625 62.125 C-30.98688023 65.40123953 -29.66853912 67.50636564 -26.375 69.3125 C-21.88230856 70.81006381 -18.04989392 70.99768388 -13.625 69.1875 C-10.70564809 66.75470674 -9.6002073 64.92005484 -8.375 61.3125 C-8.18605325 57.38996538 -8.74221636 54.23733763 -11 50.9375 C-16.76860283 46.99056122 -23.61020506 46.86851054 -30.375 46.3125 C-30.375 41.3625 -30.375 36.4125 -30.375 31.3125 C-27.8690625 31.1578125 -27.8690625 31.1578125 -25.3125 31 C-20.35202975 30.53975018 -16.70056094 29.79739671 -12.375 27.3125 C-10.43625147 24.3503465 -10.13392212 22.23954879 -10.5 18.75 C-10.56445312 17.98558594 -10.62890625 17.22117187 -10.6953125 16.43359375 C-11.61572928 13.56125862 -12.75993775 12.76279449 -15.375 11.3125 C-20.09205462 10.46112917 -24.1485461 10.64817081 -28.375 12.9375 C-30.89033422 15.62785378 -30.89033422 15.62785378 -32.375 21.3125 C-38.315 21.3125 -44.255 21.3125 -50.375 21.3125 C-49.858483 13.04822794 -48.34732274 6.73401805 -42.0625 1 C-30.25311184 -8.28601462 -12.32992441 -8.36429253 0 0 Z " fill="#FF9900" transform="translate(659.375,698.6875)"/>
<path d="M0 0 C17.49 0 34.98 0 53 0 C52 10 52 10 51 12 C37.8 12.33 24.6 12.66 11 13 C9.68 20.92 8.36 28.84 7 37 C18.88 37.33 30.76 37.66 43 38 C42 48 42 48 41 50 C28.79 50 16.58 50 4 50 C3.67 53.96 3.34 57.92 3 62 C2.69847165 64.3792471 2.3725469 66.75583455 2 69.125 C1.835 70.20007813 1.67 71.27515625 1.5 72.3828125 C1 75 1 75 0 77 C13.53 77 27.06 77 41 77 C40.34 80.96 39.68 84.92 39 89 C21.51 89 4.02 89 -14 89 C-12.8358761 79.10494683 -11.67940314 69.28271505 -10.12193298 59.45265198 C-9.95364141 58.3870917 -9.95364141 58.3870917 -9.78195 57.30000496 C-9.60951365 56.20984235 -9.60951365 56.20984235 -9.43359375 55.09765625 C-9.1920371 53.55735675 -8.95067251 52.01702711 -8.70948792 50.47666931 C-8.20989709 47.29082992 -7.70799289 44.10536657 -7.2043457 40.92016602 C-6.55867896 36.83551009 -5.91909587 32.74992738 -5.28117275 28.66405582 C-4.78688232 25.50249932 -4.28943068 22.34144662 -3.79100227 19.18054008 C-3.55358344 17.67237269 -3.31716023 16.16404821 -3.08175468 14.65556526 C-2.75491344 12.56420447 -2.4238182 10.47356152 -2.09155273 8.38305664 C-1.90439194 7.19523087 -1.71723114 6.00740509 -1.5243988 4.78358459 C-1 2 -1 2 0 0 Z " fill="#000007" transform="translate(157,689)"/>
<path d="M0 0 C3.46349243 2.08257411 6.50103215 4.61342894 9.5 7.3125 C9.83 4.6725 10.16 2.0325 10.5 -0.6875 C14.13 -0.6875 17.76 -0.6875 21.5 -0.6875 C20.87299032 9.23793929 19.60190051 18.94714912 18.03125 28.75390625 C17.78805719 30.29509866 17.54526704 31.83635465 17.30285645 33.37767029 C16.79828151 36.57918709 16.29040463 39.78015468 15.77978516 42.98071289 C15.12604581 47.07870241 14.47844034 51.17763113 13.83298492 55.27693272 C13.33356163 58.44702482 12.83211898 61.61679457 12.3299408 64.78645134 C12.0903782 66.29864912 11.85116756 67.8109027 11.61231995 69.32321358 C11.27923055 71.42875146 10.94370753 73.53388657 10.60742188 75.63891602 C10.32215637 77.43209007 10.32215637 77.43209007 10.03112793 79.26148987 C9.61864305 81.63096713 9.08332547 83.97919812 8.5 86.3125 C4.54 86.3125 0.58 86.3125 -3.5 86.3125 C-2.85873961 78.71076278 -2.00058012 71.178464 -0.9375 63.625 C-0.72963867 62.12549805 -0.72963867 62.12549805 -0.51757812 60.59570312 C-0.18066996 58.16764086 0.15854777 55.73992665 0.5 53.3125 C-0.41394531 54.10011719 -1.32789063 54.88773438 -2.26953125 55.69921875 C-8.12858889 60.56603047 -14.09221722 61.95864058 -21.6875 61.7265625 C-27.77834567 60.82985466 -33.2990914 58.03298657 -37.4375 53.4375 C-43.81097042 43.78072664 -44.26777305 34.65261321 -42.28515625 23.4921875 C-40.0688589 14.51673454 -35.39840549 6.87544107 -27.37890625 2.03125 C-19.13868073 -2.20226036 -8.70803246 -4.19338262 0 0 Z M-24.9921875 15.5390625 C-30.49236225 22.00817995 -31.13614964 28.82048654 -30.89453125 37.125 C-30.36451386 41.40712072 -29.4393971 43.20513735 -26.5 46.3125 C-25.984375 46.910625 -25.46875 47.50875 -24.9375 48.125 C-21.70431771 50.79588972 -17.89496312 50.648158 -13.91015625 50.58984375 C-8.44229942 49.96064142 -4.66505348 47.42459651 -0.75 43.6875 C4.38890604 36.75433186 6.70202523 28.87507476 5.5 20.3125 C3.74641863 15.14917708 1.00512034 12.34479254 -3.5 9.3125 C-11.50412886 6.89615921 -19.09788054 9.91890935 -24.9921875 15.5390625 Z " fill="#000007" transform="translate(414.5,717.6875)"/>
<path d="M0 0 C4.5312693 4.5312693 7.08596152 9.69904947 7.3828125 16.125 C7.38023437 17.15625 7.37765625 18.1875 7.375 19.25 C7.37886719 20.796875 7.37886719 20.796875 7.3828125 22.375 C7.25 25.25 7.25 25.25 6.25 29.25 C-8.6 29.25 -23.45 29.25 -38.75 29.25 C-36.89362867 40.32628669 -36.89362867 40.32628669 -33.125 44.4375 C-28.24844978 47.05638808 -24.08148185 47.8325542 -18.60546875 46.875 C-14.45891235 45.60645502 -12.47001539 44.11269705 -10 40.5625 C-7.95093423 37.83804383 -7.15743704 37.31074897 -3.7109375 36.796875 C-0.69484146 36.81100191 2.25027142 36.94420243 5.25 37.25 C2.08638036 46.58267792 -2.14787619 51.3744812 -10.75 56.25 C-18.85793926 59.61555969 -28.63827981 59.4182852 -36.7890625 56.2109375 C-43.92340586 52.71482501 -46.91448567 47.4799967 -49.75 40.25 C-52.56737674 29.7488685 -49.95421776 18.53939387 -44.75 9.25 C-40.32279075 2.63121204 -34.48871198 -1.8451844 -26.90234375 -4.36328125 C-17.21599302 -6.10366006 -8.30979567 -5.28805179 0 0 Z M-34.62109375 14.37109375 C-36.11603599 16.6202281 -36.11603599 16.6202281 -36.75 21.25 C-26.19 21.25 -15.63 21.25 -4.75 21.25 C-4.14329306 14.45493609 -4.14329306 14.45493609 -7 9.875 C-10.79122713 6.25610138 -12.26335655 5.39866435 -17.5 4.875 C-24.94366656 5.11020879 -29.93509643 8.86791978 -34.62109375 14.37109375 Z " fill="#000007" transform="translate(561.75,720.75)"/>
<path d="M0 0 C5.93655519 4.54807911 10.16579528 9.67901921 11.60546875 17.1328125 C12.77217366 28.62828731 10.82785144 38.06303726 4.12109375 47.625 C-1.95570453 54.52056689 -10.34266381 59.13312647 -19.578125 59.828125 C-29.58133154 59.98503804 -36.76989886 58.63221126 -44.15234375 51.55859375 C-50.12992071 44.86424851 -51.12394764 37.44649007 -50.87890625 28.625 C-49.47612554 17.61856677 -44.6733727 9.10220032 -36.05078125 2.1328125 C-25.77827199 -4.99882162 -10.98738647 -6.52202367 0 0 Z M-31.52734375 13.00390625 C-37.06780525 19.64925747 -38.6064387 26.14175366 -38.234375 34.69921875 C-37.6146504 39.80002894 -36.10930486 42.48688129 -32.37890625 45.9375 C-27.49478388 49.2342826 -22.58986803 49.32852428 -16.87890625 48.625 C-10.54211679 46.54985329 -6.43067915 42.83023123 -3.0390625 37.15234375 C-0.43484142 31.47917528 0.77377454 25.4945848 -0.44140625 19.3125 C-2.28145007 14.59238759 -4.23876982 10.99147686 -8.87890625 8.58984375 C-16.84476542 5.4415722 -25.12257126 6.97483271 -31.52734375 13.00390625 Z " fill="#000007" transform="translate(351.87890625,719.375)"/>
<path d="M0 0 C3.96 0 7.92 0 12 0 C11.84853516 0.94206299 11.69707031 1.88412598 11.54101562 2.85473633 C10.97332965 6.40011801 10.41697533 9.94720565 9.86376953 13.49487305 C9.62427285 15.02074017 9.38183578 16.54614914 9.13623047 18.07104492 C5.87758358 33.01326233 5.87758358 33.01326233 8.875 47.125 C12.19644786 50.05568929 14.47653909 50.29111141 18.91015625 50.2109375 C23.58065601 49.73952257 26.36961553 47.60106426 29.6875 44.4375 C35.81080873 36.4053596 36.20416513 24.57964319 37.6875 14.875 C37.91407694 13.42698358 38.14128602 11.97906592 38.36914062 10.53125 C38.9200424 7.02194032 39.46241408 3.51137723 40 0 C43.96 0 47.92 0 52 0 C51.3730162 7.74394661 50.40776891 15.34654171 49.15234375 23.01171875 C48.97619034 24.10595657 48.80003693 25.2001944 48.61854553 26.32759094 C48.06171094 29.78147265 47.49969684 33.23448751 46.9375 36.6875 C46.55629617 39.04616831 46.17543357 41.4048918 45.79492188 43.76367188 C44.86722224 49.50975956 43.93488029 55.25507641 43 61 C39.37 61 35.74 61 32 61 C31.505 58.03 31.505 58.03 31 55 C30.39671875 55.42152344 29.7934375 55.84304688 29.171875 56.27734375 C27.97304688 57.09912109 27.97304688 57.09912109 26.75 57.9375 C25.96109375 58.48277344 25.1721875 59.02804687 24.359375 59.58984375 C19.30707883 62.60951083 13.7492135 62.62153659 8 62 C1.8027482 60.05410524 -1.70792828 56.75899761 -5.07421875 51.23828125 C-9.27202853 41.08914622 -5.27456865 27.0935942 -3.5625 16.625 C-3.44736053 15.92007416 -3.33222107 15.21514832 -3.21359253 14.48886108 C-1.22621102 2.45242203 -1.22621102 2.45242203 0 0 Z " fill="#000007" transform="translate(453,717)"/>
<path d="M0 0 C4.47746857 3.54880842 6.73622058 6.46209682 7.39453125 12.12890625 C7.45640625 13.49015625 7.51828125 14.85140625 7.58203125 16.25390625 C3.62203125 16.25390625 -0.33796875 16.25390625 -4.41796875 16.25390625 C-4.70671875 15.30515625 -4.99546875 14.35640625 -5.29296875 13.37890625 C-6.18621984 10.20179047 -6.18621984 10.20179047 -8.41796875 8.25390625 C-14.23149174 6.9943096 -17.2227305 6.95936492 -22.41796875 10.25390625 C-23.73765053 11.35919067 -23.73765053 11.35919067 -23.66796875 14.12890625 C-23.71583746 17.18195129 -23.71583746 17.18195129 -22.15576172 18.84399414 C-20.26068459 20.38151457 -18.65680273 21.1192071 -16.36328125 21.9375 C-15.58339844 22.22560547 -14.80351562 22.51371094 -14 22.81054688 C-12.37014254 23.39485984 -10.73993714 23.97820325 -9.109375 24.56054688 C-3.86758796 26.49923088 0.59700243 28.35456113 3.87109375 33.13671875 C5.80044766 38.8823771 5.49689153 45.35641826 2.89453125 50.75390625 C-2.70944095 56.81225457 -8.14468438 59.74045488 -16.38671875 60.54296875 C-24.12488815 60.7579179 -29.65086351 59.68159629 -36.23046875 55.44140625 C-39.7444501 51.9274249 -41.32883402 48.85833134 -41.60546875 43.87890625 C-41.54359375 43.01265625 -41.48171875 42.14640625 -41.41796875 41.25390625 C-37.78796875 41.25390625 -34.15796875 41.25390625 -30.41796875 41.25390625 C-30.00546875 42.20265625 -29.59296875 43.15140625 -29.16796875 44.12890625 C-27.31163561 47.44378686 -26.81865827 47.98769207 -23.41796875 49.25390625 C-20.96453853 49.56829109 -20.96453853 49.56829109 -18.41796875 49.50390625 C-17.14953125 49.51164063 -17.14953125 49.51164063 -15.85546875 49.51953125 C-13.22447124 49.23281998 -11.62851794 48.69683616 -9.41796875 47.25390625 C-7.82644067 44.47947148 -7.82644067 44.47947148 -7.41796875 41.25390625 C-8.46121812 38.3134202 -9.5086056 36.69751203 -12.35229492 35.31030273 C-15.63025247 34.12965447 -18.94661034 33.1140038 -22.28320312 32.11328125 C-28.30478467 30.13590498 -32.06570557 27.73635727 -35.41796875 22.25390625 C-37.07700139 17.46905674 -36.71179899 13.24966429 -35.29296875 8.44140625 C-32.43982966 3.5910698 -29.14824457 -0.17987289 -23.765625 -2.23828125 C-16.08365572 -3.8999385 -6.85902252 -4.288757 0 0 Z " fill="#000007" transform="translate(250.41796875,718.74609375)"/>
<path d="M0 0 C5.47517662 3.274192 8.35473317 6.59329205 10.21875 12.703125 C12.02059011 21.06881122 10.93928259 27.32179135 6.8125 34.75 C1.20543644 39.78198011 -6.00346751 43.18829997 -13.625 42.9375 C-21.84862736 42.16102016 -27.76180966 40.31078336 -33.375 34 C-38.06964172 27.61007099 -38.42076726 21.68363955 -37.625 13.9375 C-35.92586204 7.82263824 -31.98439177 3.26328857 -26.625 -0.0625 C-18.34527537 -3.45602094 -8.20256949 -3.7441158 0 0 Z M-21.625 12.9375 C-23.87569379 16.62045347 -23.91076655 19.84790071 -23.21875 24 C-22.16270397 27.44604493 -20.56245832 28.93752838 -17.625 30.9375 C-14.79210204 31.63570919 -12.45325186 31.66884594 -9.625 30.9375 C-6.93394802 28.76175584 -5.16967072 27.02684144 -3.625 23.9375 C-3.11633534 17.83352404 -3.56796382 14.82980834 -7.625 9.9375 C-13.0590378 7.2204811 -17.65050944 8.73589569 -21.625 12.9375 Z " fill="#FF9900" transform="translate(871.625,700.0625)"/>
<path d="M0 0 C3.96 0 7.92 0 12 0 C11 12.85714286 11 12.85714286 10 18 C13.63 18 17.26 18 21 18 C20.125 26.75 20.125 26.75 19 29 C15.37 29 11.74 29 8 29 C7.79636841 30.41925781 7.79636841 30.41925781 7.58862305 31.8671875 C7.07203657 35.46111271 6.55090346 39.05436769 6.02856445 42.64746094 C5.80536615 44.18700198 5.58331528 45.72670992 5.36254883 47.26660156 C3.83692116 57.9008172 2.06566979 68.45709431 0 79 C-3.96 79 -7.92 79 -12 79 C-10.39962506 66.90019555 -8.70916118 54.81676132 -6.875 42.75 C-6.70452148 41.61385254 -6.53404297 40.47770508 -6.35839844 39.30712891 C-6.19629883 38.25187012 -6.03419922 37.19661133 -5.8671875 36.109375 C-5.72394043 35.17061523 -5.58069336 34.23185547 -5.43310547 33.26464844 C-5 31 -5 31 -4 29 C-7.63 29 -11.26 29 -15 29 C-15.07622858 25.03611362 -14.9681648 21.8726592 -14 18 C-10.04 18 -6.08 18 -2 18 C-1.855625 16.14375 -1.71125 14.2875 -1.5625 12.375 C-1.21748543 8.20525253 -0.79952651 4.11185064 0 0 Z " fill="#000007" transform="translate(280,699)"/>
<path d="" fill="#0075DE" transform="translate(0,0)"/>
</svg>
