<svg version="1.1" id="Layer_1" xmlns="http://www.w3.org/2000/svg" xmlns:xlink="http://www.w3.org/1999/xlink" x="0px" y="0px"
	 width="100%" viewBox="0 0 1024 1024" enable-background="new 0 0 1024 1024" xml:space="preserve">
<path fill="#000000" opacity="1.000000" stroke="none" 
	d="
M698.802612,630.360596 
	C572.336731,630.369385 446.350739,630.453064 320.365173,630.253906 
	C308.149231,630.234619 295.805664,629.217896 285.192383,621.584290 
	C276.263184,615.161926 273.664307,605.837097 273.949585,595.837219 
	C274.241913,585.588745 278.294128,576.156067 283.293060,567.212219 
	C285.811981,562.705505 290.555542,559.092896 295.862366,558.128906 
	C296.403625,560.851440 296.701447,563.667908 297.563721,566.299377 
	C298.354645,568.713135 297.746094,570.284241 296.111694,572.070007 
	C289.789276,578.977905 288.452515,587.493774 289.563599,596.293518 
	C290.804474,606.121521 300.032379,613.055542 311.544403,613.620911 
	C313.040894,613.694397 314.543549,613.648010 316.043335,613.648010 
	C444.528961,613.650513 573.014587,613.651001 701.500244,613.657227 
	C707.023926,613.657471 712.562073,613.341919 717.363647,610.360901 
	C732.389465,601.032288 732.744446,577.999817 717.805054,568.482544 
	C683.231323,546.457153 648.473511,524.720947 613.826050,502.810944 
	C587.175842,485.958252 560.527039,469.102234 533.995544,452.063995 
	C526.858826,447.480896 519.302002,444.055908 510.921692,443.567047 
	C503.409454,443.128815 495.852142,445.018768 489.507263,448.958984 
	C461.877441,466.117340 434.505768,483.691284 407.035248,501.106262 
	C389.231384,512.393005 371.420990,523.669495 353.602234,534.932739 
	C352.797424,535.441528 351.880829,535.773499 351.046661,536.173279 
	C346.409271,528.611450 347.691833,522.577148 354.631104,518.028870 
	C384.787292,498.262939 414.877045,478.394989 445.101257,458.733673 
	C461.810181,447.864258 478.716736,437.297699 495.585480,426.676025 
	C498.386536,424.912323 499.755524,422.812836 499.710327,419.365326 
	C499.550934,407.202118 499.622833,395.035492 499.656403,382.870270 
	C499.680878,374.004242 502.733002,370.910828 511.580414,370.637238 
	C528.744324,370.106537 545.602600,353.484161 545.634033,336.979736 
	C545.666687,319.829071 528.980408,299.101318 509.071503,298.645386 
	C497.130066,298.371918 487.075531,304.457794 479.536011,313.911163 
	C474.762421,319.896515 471.707062,326.597412 472.248779,334.561981 
	C472.346069,335.992279 471.820007,337.514679 471.362823,338.923523 
	C470.101349,342.810608 469.490997,347.491760 463.821533,347.251862 
	C458.572754,347.029785 454.946381,342.618774 454.662262,336.656555 
	C454.140991,325.718292 458.187073,316.149963 463.617554,307.045624 
	C474.373718,289.012726 500.587646,277.450562 522.663513,284.590118 
	C543.678528,291.386536 557.061707,305.669189 561.202881,329.012512 
	C564.465088,347.401123 558.353027,363.432190 545.904358,376.889709 
	C540.719666,382.494598 533.978882,386.422821 526.527771,388.658997 
	C522.047729,390.003510 520.045166,392.582214 520.264221,397.406250 
	C520.566406,404.058411 520.624451,410.751038 520.242981,417.395142 
	C519.958069,422.358215 521.878235,425.356049 525.967529,427.978424 
	C552.095703,444.733704 578.151428,461.603485 604.136719,478.579895 
	C644.871216,505.192108 685.443054,532.054749 726.306641,558.466553 
	C733.350891,563.019531 736.792847,569.314270 739.204285,576.649475 
	C742.869812,587.799194 743.953308,598.924194 738.998047,610.140015 
	C733.415955,622.774475 722.688232,627.499084 710.143555,629.189087 
	C706.568359,629.670776 702.930725,630.242310 698.802612,630.360596 
z"/>
<path fill="#000000" opacity="1.000000" stroke="none" 
	d="
M416.432739,337.553253 
	C399.097290,348.490448 384.857147,362.256470 372.414948,377.987213 
	C355.580902,399.270599 343.978821,423.153229 337.234650,449.378143 
	C333.680054,463.200348 331.799133,477.237976 331.183136,491.577972 
	C329.967224,519.881897 335.012848,546.946960 345.360138,573.129944 
	C348.284332,580.529419 351.302551,587.936890 355.611908,594.708679 
	C356.122742,595.511353 356.321045,596.513000 356.666473,597.428345 
	C356.170715,597.880005 355.842255,598.449158 355.459900,598.487976 
	C346.743011,599.373901 338.044434,600.705200 329.247742,600.151550 
	C327.244812,600.025452 326.237793,598.262634 325.328278,596.628235 
	C313.756622,575.833679 305.889008,553.743652 302.657440,530.139832 
	C297.273865,490.817383 301.242249,452.741425 317.881653,416.281403 
	C327.490753,395.226166 340.134827,376.444153 356.177246,359.708466 
	C373.766785,341.358856 393.844269,326.580444 416.713531,315.747375 
	C428.039154,310.382477 439.694794,305.475098 453.137543,303.131958 
	C450.245056,309.315948 447.715271,314.814148 445.905487,320.594696 
	C445.371643,322.299835 443.476685,322.755798 441.951935,323.404114 
	C433.063354,327.183228 424.657745,331.835510 416.432739,337.553253 
z"/>
<path fill="#000000" opacity="1.000000" stroke="none" 
	d="
M378.455688,658.598022 
	C371.288208,653.395386 365.143890,647.626770 359.586334,641.443359 
	C359.826965,640.779053 359.867432,640.275940 360.050903,640.216736 
	C369.058502,637.315857 378.493713,637.945129 387.573456,638.463135 
	C393.128540,638.780029 396.438812,645.518311 400.943390,649.156982 
	C416.580444,661.788208 433.652710,671.733032 452.418121,678.876587 
	C474.104218,687.132080 496.538849,691.226746 519.676453,689.557373 
	C540.451599,688.058350 560.459106,682.875732 579.709656,674.667908 
	C600.737671,665.702271 619.128906,652.838989 636.201294,637.882507 
	C637.347107,636.878662 638.411926,635.795837 640.036560,635.786316 
	C644.988159,635.757385 649.940063,635.775818 655.364929,635.775818 
	C653.694580,641.473755 649.648315,644.577148 646.070251,647.804565 
	C635.348083,657.476013 624.224915,666.662048 611.863403,674.248779 
	C590.811157,687.169373 568.058838,695.295044 543.720520,699.428528 
	C525.017944,702.604797 506.173889,701.904968 487.502563,700.998291 
	C464.726685,699.892212 442.819000,693.733154 421.816345,684.516602 
	C406.352783,677.730835 392.027496,669.178955 378.455688,658.598022 
z"/>
<path fill="#000000" opacity="1.000000" stroke="none" 
	d="
M625.024902,332.916412 
	C641.708496,344.733673 655.683228,358.805878 667.735657,374.822296 
	C687.931885,401.660950 701.335266,431.548615 707.032166,464.665314 
	C710.254761,483.398438 710.143127,502.328796 708.488708,521.266846 
	C708.126831,525.409302 707.576721,529.468201 706.855225,533.509583 
	C698.649048,533.251648 693.755676,527.468079 694.754883,519.534607 
	C696.982849,501.844971 696.291321,484.213043 693.319397,466.675537 
	C689.049011,441.475464 680.073669,417.959747 666.203369,396.561066 
	C649.235718,370.383942 627.328247,349.133667 600.176453,333.457733 
	C591.232056,328.293732 582.023438,323.751709 572.292664,320.295563 
	C570.951355,319.819183 569.853149,319.067352 569.199158,317.917328 
	C566.449707,313.082428 563.808899,308.185791 560.581787,302.318054 
	C584.705200,308.342926 605.677673,318.478485 625.024902,332.916412 
z"/>
</svg>
