<?xml version="1.0" encoding="UTF-8"?>
<svg version="1.1" xmlns="http://www.w3.org/2000/svg" width="1024" height="1024">
<path d="M0 0 C11.66068427 9.23357351 17.32917353 24.29369777 19.7265625 38.4921875 C21.092417 52.83365979 15.71717145 67.52562054 6.7265625 78.4921875 C6.1490625 79.3378125 5.5715625 80.1834375 4.9765625 81.0546875 C-1.27657019 87.82891458 -9.344085 91.68871278 -17.68359375 95.328125 C-20.15379251 96.25418759 -20.15379251 96.25418759 -21.2734375 97.4921875 C-21.66126876 101.94005798 -21.75870518 106.39292241 -21.84326172 110.85498047 C-21.87979705 112.35292912 -21.93424687 113.8505569 -22.00732422 115.34716797 C-22.64742501 124.07050795 -22.64742501 124.07050795 -19.51782227 131.89697266 C-17.19610546 133.74122651 -14.90053919 135.12364841 -12.2734375 136.4921875 C-10.89873542 137.36412864 -9.52746168 138.24150522 -8.16015625 139.125 C-6.76319615 139.96039472 -5.36334942 140.79097769 -3.9609375 141.6171875 C5.24106842 147.14225339 14.23082416 152.96169312 23.20751953 158.84375 C27.31101357 161.52903704 31.42571981 164.19702276 35.5390625 166.8671875 C61.87457909 183.98165719 88.16124397 201.17123834 114.4152832 218.41040039 C115.77945826 219.30615444 117.14363469 220.20190639 118.5078125 221.09765625 C119.18623703 221.54313309 119.86466156 221.98860992 120.56364441 222.44758606 C125.31367357 225.56606861 130.06641081 228.68039356 134.8203125 231.79296875 C140.79100072 235.70247384 146.75731318 239.61856558 152.71896362 243.5418396 C156.13707747 245.79101617 159.55728783 248.03688822 162.98144531 250.27685547 C166.48533416 252.56936147 169.98369985 254.87007903 173.47845459 257.17648315 C174.79576674 258.04390043 176.1149441 258.90849263 177.43609619 259.77005005 C179.26203334 260.96146891 181.08088745 262.16302583 182.8984375 263.3671875 C184.4467627 264.38425781 184.4467627 264.38425781 186.02636719 265.421875 C193.89042075 271.45145675 197.6517498 281.61541902 199.4453125 291.15234375 C200.77820103 302.24123579 199.52692078 312.30901923 193.16015625 321.6796875 C185.76271976 331.03230475 176.08073037 333.55106799 164.65747058 335.09155226 C157.90052033 335.78021563 151.1585759 335.76766181 144.37599182 335.74615479 C142.77005066 335.74846446 141.16411057 335.75164436 139.55817264 335.75560927 C135.18352126 335.76389645 130.80895804 335.75985989 126.4343065 335.75363684 C121.70142759 335.74908823 116.96856322 335.75610802 112.23568726 335.76159668 C102.97882196 335.77046693 93.72198919 335.76857919 84.46512265 335.7627714 C76.93793182 335.7582453 69.41075007 335.7576461 61.88355827 335.75981903 C60.81017045 335.7601255 59.73678263 335.76043196 58.63086791 335.76074772 C56.44994235 335.7613872 54.2690168 335.76203563 52.08809125 335.7626929 C31.66080986 335.76838933 11.23354646 335.76184923 -9.19373197 335.75109217 C-26.69988305 335.74215856 -44.2060076 335.74370847 -61.7121582 335.75292969 C-82.06733498 335.76364667 -102.42249601 335.76783873 -122.77767521 335.76170516 C-124.95065597 335.7610681 -127.12363674 335.76043936 -129.29661751 335.75981903 C-130.36561589 335.75951048 -131.43461428 335.75920193 -132.53600655 335.75888403 C-140.048737 335.75716128 -147.56145743 335.76006315 -155.07418633 335.76477814 C-164.23752039 335.77040291 -173.40082021 335.7688371 -182.56415039 335.75821665 C-187.23436463 335.75298119 -191.9045219 335.75086672 -196.57473564 335.75751495 C-200.85873068 335.76352088 -205.1426165 335.76012359 -209.42660177 335.74955985 C-210.9674887 335.74734533 -212.50838505 335.74841766 -214.04926579 335.75331143 C-248.57820605 335.85446973 -248.57820605 335.85446973 -260.87890625 324.15234375 C-266.61717973 317.32106579 -268.57556261 308.98262583 -268.1484375 300.2421875 C-267.00149975 288.9292106 -262.847123 274.36452138 -254.11328125 266.5625 C-249.33434852 263.4921875 -249.33434852 263.4921875 -246.2734375 263.4921875 C-243.43243304 273.76087832 -243.43243304 273.76087832 -245.40625 277.82421875 C-246.48630239 279.1468916 -247.59634842 280.44561524 -248.734375 281.71875 C-253.13577014 286.79040836 -252.70280656 293.96997201 -252.5859375 300.33203125 C-251.9806965 306.45253087 -249.71079065 309.98950011 -245.5234375 314.3671875 C-237.26628396 319.76609558 -227.63941749 318.77740829 -218.14845276 318.75288391 C-216.49391585 318.75590627 -214.83938034 318.75979618 -213.1848473 318.76447648 C-208.64824236 318.77475418 -204.11171648 318.77257524 -199.57510507 318.76829588 C-194.67863194 318.76582828 -189.78217783 318.77484322 -184.88571167 318.78233337 C-175.29716284 318.79508108 -165.70864202 318.796874 -156.12008614 318.79453311 C-148.32668143 318.79275 -140.53328521 318.79449945 -132.73988152 318.79875755 C-131.07602537 318.79965034 -131.07602537 318.79965034 -129.37855596 318.80056116 C-127.12514282 318.80177291 -124.87172967 318.80298704 -122.61831652 318.80420353 C-101.48735134 318.81507919 -80.35640211 318.81291636 -59.22543602 318.80681869 C-39.89385723 318.8016486 -20.56232881 318.81290735 -1.23075999 318.83191691 C18.62046935 318.8512878 38.47167485 318.85955268 58.32291371 318.85579365 C69.46727568 318.85388059 80.61159476 318.85637951 91.75594902 318.87050819 C101.24240279 318.88241335 110.72878726 318.88383652 120.21524196 318.87171803 C125.05481938 318.8658235 129.89427001 318.86474583 134.73383904 318.87672043 C139.16583497 318.88755912 143.59759792 318.88449985 148.02958287 318.87045874 C149.63110823 318.86780629 151.23265173 318.87019557 152.83415931 318.87819461 C166.76423004 319.00301826 166.76423004 319.00301826 179.1015625 313.1796875 C184.19426092 307.96573435 185.85333959 302.42081082 185.9765625 295.3046875 C185.89744109 288.72002833 185.01017002 283.10142827 180.58984375 278.05078125 C177.28737781 275.09973733 173.84448649 272.77801032 170.1015625 270.4296875 C168.99047119 269.72187134 168.99047119 269.72187134 167.85693359 268.99975586 C165.48422413 267.49068484 163.10575113 265.99101835 160.7265625 264.4921875 C159.16903515 263.50558031 157.61174228 262.51860284 156.0546875 261.53125 C152.08513886 259.01709224 148.11025721 256.51149633 144.13378906 254.00830078 C140.16219303 251.50692032 136.19456534 248.99926241 132.2265625 246.4921875 C130.64324851 245.49215688 129.05991517 244.49215689 127.4765625 243.4921875 C22.9765625 177.4921875 22.9765625 177.4921875 20.59936523 175.99047852 C19.02374308 174.99556205 17.4477368 174.00125363 15.87133789 173.00756836 C11.79158249 170.43476865 7.72002917 167.85017331 3.66015625 165.24609375 C2.82355469 164.71177734 1.98695313 164.17746094 1.125 163.62695312 C-0.45437146 162.61791025 -2.03141128 161.60520316 -3.60546875 160.58789062 C-17.35316841 151.82495086 -28.55244948 147.53197434 -44.953125 151.0703125 C-53.47177448 153.71135277 -60.6320694 159.04344323 -67.96582031 163.96142578 C-71.8182737 166.51695718 -75.7335976 168.97123248 -79.6484375 171.4296875 C-81.25006461 172.43869953 -82.8516268 173.44781462 -84.453125 174.45703125 C-85.24944336 174.95831543 -86.04576172 175.45959961 -86.86621094 175.97607422 C-90.83780691 178.47745465 -94.80545399 180.98508209 -98.7734375 183.4921875 C-103.48746153 186.47005093 -108.20183991 189.44734588 -112.91796875 192.421875 C-121.38108165 197.76102005 -129.83342498 203.11658949 -138.2734375 208.4921875 C-145.92888433 213.3680813 -153.59038538 218.23404629 -161.27001953 223.07177734 C-165.35670406 225.64641458 -169.43554272 228.23242535 -173.50390625 230.8359375 C-174.3647583 231.38491699 -175.22561035 231.93389648 -176.11254883 232.49951172 C-177.75907322 233.54985066 -179.40356776 234.60338095 -181.0456543 235.66064453 C-184.69641683 237.98468488 -188.14596153 240.09443667 -192.2734375 241.4921875 C-193.90181872 236.60704385 -194.74397724 232.53284305 -193.2734375 227.4921875 C-189.36896984 223.42549756 -184.71127012 220.74412168 -179.8984375 217.8671875 C-178.52352361 217.00558517 -177.151068 216.14004851 -175.78100586 215.27075195 C-172.98127326 213.50070022 -170.17034699 211.75107923 -167.34814453 210.01708984 C-161.42561422 206.36682046 -155.6403375 202.51410394 -149.8359375 198.6796875 C-147.7107497 197.29126167 -145.58445976 195.90452127 -143.45703125 194.51953125 C-139.38540174 191.8678961 -135.31483423 189.2146601 -131.24609375 186.55859375 C-118.93198239 178.52090977 -106.60799396 170.4984599 -94.2734375 162.4921875 C-93.57653809 162.03956543 -92.87963867 161.58694336 -92.16162109 161.12060547 C-81.83472595 154.4154415 -71.47081964 147.76917054 -61.08911133 141.14916992 C-60.07743896 140.50310791 -59.0657666 139.8570459 -58.0234375 139.19140625 C-57.13140625 138.62252686 -56.239375 138.05364746 -55.3203125 137.4675293 C-54.31484375 136.8156665 -53.309375 136.16380371 -52.2734375 135.4921875 C-51.50571014 135.09690353 -50.73798279 134.70161957 -49.94699097 134.2943573 C-45.17835131 131.70439289 -45.17835131 131.70439289 -42.47320557 127.2190094 C-42.18455433 124.44719824 -42.18259942 121.80453202 -42.28125 119.01953125 C-42.2789035 118.01886124 -42.27655701 117.01819122 -42.2741394 115.98719788 C-42.27342451 112.79950572 -42.33294047 109.61664773 -42.3984375 106.4296875 C-42.43212066 103.24013305 -42.45302095 100.05119268 -42.45846558 96.86146545 C-42.46519156 94.88022359 -42.48994674 92.8989399 -42.53494263 90.91819763 C-42.58594131 85.95220748 -42.58909498 82.49565679 -39.2734375 78.4921875 C-36.11556498 76.28441082 -32.9225157 76.09347198 -29.1484375 75.6796875 C-18.54529649 74.12598339 -10.4775302 69.4351615 -3.2734375 61.4921875 C2.47861119 53.26909164 3.9702036 44.85134814 2.30078125 34.97265625 C-0.43160106 24.32809942 -7.47210003 15.86506229 -16.2734375 9.4921875 C-24.57168868 4.82948936 -32.74039354 3.12699554 -42.0859375 5.6171875 C-53.46359001 9.33480952 -61.56067411 16.0761175 -67.39892578 26.50952148 C-69.2646921 30.73952938 -69.51463473 35.35850908 -70.05078125 39.90820312 C-70.76827773 45.13884104 -72.01190429 48.31501894 -75.2734375 52.4921875 C-81.64877997 52.00177654 -81.64877997 52.00177654 -84.6484375 49.5546875 C-88.29868919 44.92167574 -87.76710275 40.18672044 -87.2734375 34.4921875 C-84.32263703 20.54754759 -77.50745878 7.30564009 -65.859375 -1.2890625 C-43.31232212 -15.31833985 -21.82153271 -14.47270039 0 0 Z " fill="#000000" transform="translate(541.2734375,293.5078125)"/>
<path d="M0 0 C-0.44472656 1.30324219 -0.44472656 1.30324219 -0.8984375 2.6328125 C-2.01429071 5.90503229 -2.01429071 5.90503229 -2.7265625 8.9296875 C-4.25955087 13.95522327 -5.8548328 17.59632425 -10.46484375 20.30859375 C-13.90389241 22.07859336 -17.4446567 23.60892648 -21.00341797 25.12060547 C-34.54227391 31.0837944 -46.88821524 40.68390803 -57.60546875 50.7578125 C-59.60371686 52.628929 -61.63509164 54.38993106 -63.75 56.125 C-67.59365764 59.40661336 -70.79488992 63.10138657 -74 67 C-74.83660156 68.010625 -75.67320312 69.02125 -76.53515625 70.0625 C-83.47504011 78.58666268 -89.45373031 87.51637425 -95 97 C-95.35690918 97.60392578 -95.71381836 98.20785156 -96.08154297 98.83007812 C-121.6546668 142.60108012 -126.7082863 196.84426931 -114.37548828 245.46191406 C-109.90714144 262.45967923 -102.96407603 278.37042304 -95 294 C-99.40841062 296.20420531 -105.12481881 295.6384506 -110.01806641 295.87841797 C-111.8327098 295.98973756 -113.64203561 296.18038217 -115.44921875 296.37890625 C-116.47660156 296.46011719 -117.50398438 296.54132813 -118.5625 296.625 C-119.92568359 296.76808594 -119.92568359 296.76808594 -121.31640625 296.9140625 C-126.65405459 295.09599887 -128.83104257 289.25923715 -131.29858398 284.49023438 C-132.57693993 281.83040059 -133.77195399 279.14863578 -134.9375 276.4375 C-135.36426025 275.44806396 -135.79102051 274.45862793 -136.23071289 273.43920898 C-145.09951429 252.27695357 -151.00517717 229.27808234 -151.23828125 206.25 C-151.24812042 205.44252319 -151.25795959 204.63504639 -151.26809692 203.80310059 C-151.44449192 185.55856834 -151.26737316 167.84760661 -147 150 C-146.76394043 149.01225586 -146.52788086 148.02451172 -146.28466797 147.00683594 C-134.94537665 101.40109818 -107.10524477 57.81502498 -68 31 C-67.37480469 30.56816406 -66.74960937 30.13632812 -66.10546875 29.69140625 C-48.14100331 17.37789887 -22.41614961 0 0 0 Z " fill="#0075DE" transform="translate(451,303)"/>
<path d="M0 0 C-11.78199993 17.6729999 -30.97030148 30.39481834 -49 41 C-49.60537598 41.35835937 -50.21075195 41.71671875 -50.83447266 42.0859375 C-64.4976709 50.06707554 -79.37257359 55.68713393 -94.625 59.8125 C-95.29047852 59.99514404 -95.95595703 60.17778809 -96.64160156 60.3659668 C-99.08359828 60.98504442 -101.52971582 61.50387598 -104 62 C-104.93147858 62.18792114 -104.93147858 62.18792114 -105.8817749 62.37963867 C-118.53723912 64.8537113 -130.91073878 65.47071345 -143.78759766 65.39111328 C-146.86536197 65.3750503 -149.94180665 65.39105212 -153.01953125 65.41015625 C-170.00981633 65.42889304 -186.7983619 63.88262772 -203.25 59.4375 C-204.18344238 59.18846924 -205.11688477 58.93943848 -206.07861328 58.68286133 C-238.72459628 49.55378649 -275.81482093 31.54073279 -297 4 C-287.93334901 0.977783 -273.27721452 -0.40787703 -264.515625 3.58984375 C-262.08583008 5.90956406 -260.08637702 8.36985374 -258 11 C-255.98367094 12.72517223 -253.99106071 14.34888189 -251.875 15.9375 C-251.33166016 16.35153076 -250.78832031 16.76556152 -250.22851562 17.19213867 C-228.94191282 33.16634046 -204.89342361 44.08796442 -179 50 C-178.29601074 50.16661133 -177.59202148 50.33322266 -176.86669922 50.50488281 C-135.58739101 59.96533637 -89.18649237 48.67756882 -53.37890625 27.17578125 C-40.63244685 19.11612069 -40.63244685 19.11612069 -29.21875 9.33984375 C-19.75087068 -0.02993586 -13.23933931 -1.77434444 0 0 Z " fill="#0075DE" transform="translate(655,635)"/>
<path d="M0 0 C29.76119813 4.51927832 58.0126174 22.87939576 79.73828125 42.92578125 C81.78324667 44.80121586 83.87619475 46.59032533 86 48.375 C116.79697479 75.41474387 136.2463085 116.64743554 145 156 C145.17934082 156.76554199 145.35868164 157.53108398 145.54345703 158.31982422 C148.37297509 170.84332172 148.28139595 183.53963501 148.3125 196.3125 C148.31814972 197.60146683 148.31814972 197.60146683 148.32391357 198.91647339 C148.34803252 209.78517009 147.76834216 220.2654444 146 231 C136.29130133 227.90205797 136.29130133 227.90205797 134 224 C133.43257664 219.38046856 133.8728507 214.87563372 134.25 210.25 C134.41610934 207.52963466 134.55264868 204.80820063 134.68359375 202.0859375 C134.71813156 201.40197906 134.75266937 200.71802063 134.78825378 200.01333618 C135.57429773 182.85552045 133.08097476 165.6347964 129 149 C128.73944824 147.92709717 128.73944824 147.92709717 128.47363281 146.83251953 C122.05001434 121.17960324 109.53656969 97.50448148 93 77 C92.28577881 76.11223877 92.28577881 76.11223877 91.55712891 75.20654297 C81.57691071 62.90117197 70.66392182 52.47588212 58 43 C57.16855469 42.37351562 56.33710937 41.74703125 55.48046875 41.1015625 C43.43964256 32.36324571 30.50253855 25.47350771 16.828125 19.69140625 C9.88401427 16.64721694 7.0245832 14.09431425 3.6875 7.3125 C3.32849609 6.61060547 2.96949219 5.90871094 2.59960938 5.18554688 C1.720864 3.46320595 0.85874243 1.73240098 0 0 Z " fill="#0075DE" transform="translate(560,302)"/>
<path d="" fill="#0075DE" transform="translate(0,0)"/>
</svg>
